<?xml version="1.0" standalone="no"?>
<!DOCTYPE svg PUBLIC "-//W3C//DTD SVG 20010904//EN"
 "http://www.w3.org/TR/2001/REC-SVG-20010904/DTD/svg10.dtd">
<svg version="1.0" xmlns="http://www.w3.org/2000/svg"
 width="5041.000000pt" height="5041.000000pt" viewBox="0 0 5041.000000 5041.000000"
 preserveAspectRatio="xMidYMid meet">
<metadata>
Created by potrace 1.11, written by Peter Selinger 2001-2013
</metadata>
<g transform="translate(0.000000,5041.000000) scale(0.100000,-0.100000)"
fill="#000000" stroke="none">
<path d="M38929 45846 c-2 -2 -49 -6 -105 -10 -55 -4 -109 -8 -120 -10 -10 -2
-46 -7 -79 -12 -33 -4 -62 -8 -65 -9 -3 0 -27 -4 -53 -9 -27 -4 -59 -10 -70
-12 -12 -3 -47 -9 -76 -15 -30 -6 -105 -24 -165 -40 -132 -36 -120 -33 -176
-48 -25 -7 -45 -12 -46 -10 0 2 -7 -1 -15 -7 -8 -6 -26 -14 -41 -18 -15 -3
-40 -11 -55 -18 -15 -6 -30 -12 -33 -12 -3 -1 -54 -21 -115 -46 -211 -84 -497
-236 -673 -357 -35 -24 -67 -43 -73 -43 -5 0 -9 -3 -9 -7 0 -5 -17 -19 -38
-33 -35 -24 -161 -119 -172 -130 -3 -3 -32 -27 -65 -55 -536 -447 -972 -1100
-1179 -1765 -33 -108 -82 -294 -93 -350 -2 -14 -8 -44 -14 -68 -5 -23 -12 -59
-14 -80 -3 -20 -8 -48 -11 -62 -3 -13 -7 -40 -10 -60 -2 -19 -9 -60 -14 -90
-5 -30 -14 -99 -20 -152 -6 -54 -13 -106 -15 -117 -2 -11 -7 -64 -10 -118 -4
-54 -9 -111 -11 -128 -5 -40 -5 -419 1 -775 9 -587 20 -1636 30 -2825 11
-1243 11 -1455 3 -1455 -4 0 -73 46 -155 103 -258 179 -600 401 -848 550 -205
123 -434 257 -440 257 -4 0 -19 8 -33 19 -87 60 -825 446 -1107 578 -149 70
-303 142 -340 158 -698 313 -1414 581 -2140 801 -137 41 -257 77 -265 79 -8 2
-116 31 -240 64 -124 34 -234 63 -245 65 -11 2 -74 18 -140 35 -103 26 -169
42 -235 56 -8 2 -46 11 -85 20 -83 19 -478 102 -550 115 -27 5 -62 12 -78 15
-15 2 -53 9 -85 15 -31 6 -68 12 -82 15 -14 3 -90 16 -170 29 -141 24 -179 30
-257 42 -21 3 -49 7 -63 9 -22 4 -123 18 -215 30 -47 6 -186 25 -225 31 -19 3
-57 7 -84 10 -50 5 -103 11 -166 19 -19 2 -62 7 -95 10 -33 3 -80 7 -105 10
-25 2 -80 7 -123 10 -43 4 -88 8 -99 10 -11 3 -63 7 -117 10 -53 3 -121 7
-151 10 -87 8 -239 17 -555 31 -214 10 -1143 10 -1375 0 -276 -11 -497 -23
-590 -32 -30 -2 -86 -6 -125 -9 -76 -5 -170 -14 -225 -20 -19 -2 -69 -7 -110
-10 -41 -3 -84 -7 -95 -9 -11 -2 -56 -7 -100 -11 -44 -4 -87 -8 -95 -10 -8 -1
-46 -6 -85 -10 -38 -4 -77 -8 -85 -10 -8 -1 -42 -6 -75 -10 -32 -4 -66 -8 -75
-10 -8 -1 -40 -6 -70 -9 -30 -4 -66 -8 -80 -11 -14 -2 -90 -13 -170 -25 -80
-11 -210 -32 -290 -46 -176 -30 -175 -30 -225 -39 -22 -4 -47 -9 -55 -10 -8
-2 -55 -11 -105 -20 -49 -9 -101 -19 -115 -22 -14 -2 -99 -20 -190 -40 -91
-19 -174 -36 -185 -38 -11 -2 -81 -18 -155 -35 -74 -18 -160 -38 -190 -45 -86
-20 -405 -102 -505 -130 -49 -14 -99 -28 -110 -30 -11 -3 -49 -13 -85 -24 -36
-11 -209 -63 -385 -115 -356 -106 -710 -221 -820 -266 -11 -4 -36 -13 -55 -20
-19 -7 -49 -19 -67 -26 -17 -8 -35 -14 -40 -14 -24 0 -868 -347 -898 -369 -5
-4 -29 -13 -53 -21 -23 -7 -47 -19 -53 -27 -6 -7 -17 -13 -24 -13 -25 0 -706
-329 -917 -443 -35 -19 -102 -55 -150 -80 -47 -26 -102 -55 -122 -66 -19 -11
-66 -37 -103 -57 -37 -21 -90 -50 -116 -66 -26 -15 -50 -28 -52 -28 -2 0 -44
-24 -92 -53 -49 -30 -93 -56 -98 -58 -11 -4 -377 -226 -445 -269 -22 -14 -68
-43 -102 -64 -201 -126 -639 -423 -872 -591 -204 -148 -742 -558 -766 -585 -3
-3 -30 -25 -60 -50 -85 -69 -354 -293 -360 -299 -3 -3 -39 -35 -80 -71 -41
-35 -77 -67 -80 -70 -3 -3 -25 -23 -50 -44 -345 -300 -917 -860 -1259 -1231
-80 -87 -229 -252 -262 -289 -19 -22 -41 -47 -49 -56 -28 -29 -295 -345 -386
-455 -384 -466 -813 -1050 -1132 -1541 -148 -227 -184 -285 -335 -534 -276
-456 -423 -721 -672 -1215 -186 -369 -207 -413 -352 -740 -46 -104 -90 -203
-98 -220 -223 -491 -614 -1590 -765 -2150 -4 -16 -24 -89 -44 -162 -20 -72
-39 -141 -41 -152 -2 -12 -6 -25 -9 -29 -3 -5 -7 -19 -10 -33 -2 -13 -21 -89
-41 -169 -20 -80 -38 -152 -40 -160 -2 -8 -13 -55 -24 -105 -21 -87 -97 -437
-105 -479 -2 -12 -14 -68 -25 -126 -12 -58 -24 -121 -27 -140 -3 -19 -7 -43
-10 -52 -7 -24 -64 -348 -80 -458 -3 -19 -12 -75 -19 -125 -16 -107 -22 -143
-31 -210 -3 -27 -8 -58 -10 -69 -2 -10 -6 -44 -10 -75 -3 -31 -8 -63 -9 -71
-2 -9 -6 -43 -10 -75 -4 -33 -8 -71 -10 -85 -2 -14 -7 -52 -10 -85 -3 -33 -8
-73 -10 -90 -6 -52 -15 -138 -20 -200 -3 -33 -7 -84 -10 -112 -13 -136 -24
-273 -30 -353 -2 -36 -7 -106 -10 -156 -4 -49 -8 -128 -10 -175 -2 -46 -7
-156 -11 -244 -10 -209 -10 -1173 0 -1385 4 -91 9 -196 11 -235 6 -118 27
-427 40 -580 1 -22 6 -76 9 -120 4 -44 9 -91 12 -105 2 -14 6 -54 9 -90 2 -36
6 -74 9 -85 2 -11 7 -54 11 -95 4 -41 9 -84 11 -95 2 -11 6 -45 9 -75 3 -30 7
-66 10 -80 2 -14 7 -50 10 -80 3 -30 13 -98 20 -150 8 -52 16 -111 19 -130 3
-19 12 -80 21 -135 9 -55 18 -113 21 -130 2 -16 6 -41 9 -55 3 -14 7 -41 10
-60 3 -19 8 -42 10 -50 2 -8 6 -33 9 -55 8 -57 32 -184 73 -383 19 -95 37
-185 39 -199 3 -14 21 -94 40 -177 19 -83 37 -164 40 -181 11 -61 141 -571
189 -740 174 -612 460 -1457 620 -1830 7 -16 48 -115 91 -220 76 -186 203
-477 300 -685 61 -131 381 -772 430 -860 20 -36 54 -99 77 -140 54 -100 129
-236 157 -285 13 -22 36 -62 52 -90 61 -105 163 -278 193 -325 12 -19 66 -107
120 -195 144 -233 561 -858 642 -960 5 -5 54 -73 111 -150 97 -133 282 -379
347 -460 160 -201 413 -511 450 -551 6 -6 35 -39 65 -74 80 -93 222 -253 304
-344 39 -43 84 -92 99 -110 233 -257 775 -797 1041 -1037 27 -24 63 -57 80
-74 75 -72 320 -285 521 -455 55 -46 102 -87 105 -90 3 -3 21 -17 42 -32 20
-15 42 -33 50 -40 11 -11 51 -43 218 -175 8 -6 40 -32 70 -56 53 -42 330 -253
381 -290 13 -9 40 -29 59 -43 19 -14 96 -69 170 -121 74 -53 151 -108 170
-122 62 -46 101 -71 110 -71 4 0 10 -4 12 -9 4 -11 378 -258 599 -396 96 -59
185 -115 199 -124 58 -36 183 -111 187 -111 2 0 45 -25 96 -56 50 -30 99 -59
107 -64 22 -13 247 -139 300 -168 25 -13 59 -32 75 -42 59 -34 264 -140 515
-267 238 -120 315 -156 530 -256 47 -21 114 -52 150 -69 299 -139 914 -386
1315 -530 380 -136 1197 -389 1431 -443 10 -2 73 -18 139 -36 66 -17 128 -32
138 -35 10 -2 27 -6 37 -9 10 -3 27 -7 37 -9 10 -2 36 -9 58 -14 22 -6 51 -13
65 -16 14 -2 85 -18 159 -35 73 -17 143 -33 155 -35 11 -2 64 -13 116 -24 52
-12 111 -24 130 -27 19 -3 42 -8 50 -10 8 -2 29 -7 45 -10 28 -4 42 -7 105
-20 14 -2 36 -6 50 -9 14 -2 88 -15 165 -29 77 -14 156 -28 175 -31 238 -39
268 -44 325 -51 34 -4 84 -11 280 -40 36 -5 204 -25 335 -40 25 -3 61 -8 80
-10 19 -3 62 -7 95 -10 33 -3 78 -8 100 -10 22 -3 67 -7 100 -10 33 -3 83 -7
110 -10 28 -2 88 -7 135 -10 47 -3 103 -8 125 -10 22 -2 92 -7 155 -10 63 -4
142 -8 175 -10 408 -26 1391 -26 1805 -1 36 3 117 7 180 11 63 3 131 8 150 10
19 2 80 6 135 10 55 4 114 9 130 10 17 2 64 6 105 10 41 3 86 8 100 10 14 2
61 7 104 10 44 3 82 8 85 9 3 2 42 7 85 11 43 4 86 8 95 10 9 1 45 6 81 10 36
4 72 8 80 10 8 1 40 6 70 10 30 3 66 8 80 10 14 2 45 7 70 10 25 3 72 10 105
15 33 5 78 12 100 15 22 3 51 8 65 10 14 3 43 7 65 10 22 3 51 8 65 11 14 2
36 6 50 9 14 2 52 8 85 14 33 6 74 13 90 15 317 54 924 185 1305 282 96 25
182 47 190 49 93 23 228 60 330 90 69 20 130 38 135 39 6 1 28 8 50 14 22 6
45 12 50 13 6 0 18 5 28 11 10 5 30 12 43 14 69 13 886 288 1022 345 47 20 70
28 167 64 55 21 114 43 130 51 17 7 86 35 155 62 195 78 335 139 457 198 61
30 114 54 117 54 3 0 54 23 112 50 58 28 107 50 109 50 12 0 688 334 790 390
27 15 98 53 157 84 59 31 125 66 145 78 21 11 93 52 160 90 67 37 173 98 235
135 62 36 124 73 138 81 182 104 653 400 658 414 2 4 8 8 13 8 22 0 898 613
929 650 3 3 21 17 40 30 19 13 37 27 40 30 3 3 23 19 45 35 50 38 218 168 225
175 3 3 21 17 40 31 19 15 45 35 57 45 12 11 38 33 59 49 96 77 372 308 478
400 24 21 191 170 196 175 3 3 50 45 105 95 109 97 153 138 354 331 229 221
518 514 706 719 50 53 104 112 120 130 69 75 238 268 364 414 25 29 51 59 56
65 26 29 203 246 304 371 61 77 118 148 127 158 17 21 337 447 374 498 13 19
80 113 147 209 68 96 127 180 132 186 4 5 73 109 153 230 199 301 388 604 553
889 32 55 70 120 85 145 14 25 29 52 33 60 4 8 18 33 30 55 13 22 40 72 61
110 21 39 52 95 69 125 75 135 407 787 412 810 2 6 38 86 90 195 353 748 691
1655 940 2520 43 148 124 446 130 475 2 8 17 71 35 140 32 127 134 570 143
625 3 17 22 109 42 205 20 96 38 191 41 210 2 19 9 55 14 80 5 25 11 61 14 80
4 19 8 46 11 60 3 13 7 40 10 60 3 20 7 45 9 55 2 11 7 40 11 65 4 25 9 52 10
60 2 8 8 51 15 95 6 44 13 91 15 105 2 14 7 45 10 70 3 25 8 56 10 70 2 14 7
45 10 70 3 25 7 61 10 80 20 153 42 348 60 525 3 33 8 78 10 100 2 22 7 72 10
110 3 39 7 90 10 115 7 78 17 213 20 275 1 33 5 103 9 155 34 489 39 1389 11
1895 -3 50 -7 128 -10 175 -2 47 -5 4324 -6 9505 0 5504 -4 9445 -9 9480 -5
33 -12 80 -15 105 -3 25 -10 70 -15 100 -5 30 -12 71 -14 90 -3 19 -12 67 -20
105 -8 39 -17 82 -20 95 -15 78 -71 272 -110 385 -135 393 -334 762 -588 1092
-43 56 -84 108 -91 115 -7 8 -41 47 -77 88 -128 146 -336 343 -506 478 -243
194 -649 428 -939 541 -112 44 -353 126 -396 135 -34 7 -56 12 -126 31 -61 16
-81 20 -133 30 -14 2 -50 9 -80 15 -69 14 -74 15 -190 29 -52 6 -113 13 -135
16 -44 6 -561 16 -566 11z m-13459 -13370 c124 -4 239 -8 255 -11 17 -2 77 -7
135 -10 104 -5 156 -9 258 -20 28 -3 78 -8 110 -11 68 -7 91 -9 202 -24 47 -7
96 -13 110 -15 39 -4 229 -34 290 -45 242 -43 278 -50 375 -70 55 -12 111 -24
125 -26 40 -8 449 -111 525 -133 384 -109 909 -290 1122 -387 28 -13 54 -24
58 -24 5 0 204 -87 340 -150 84 -38 483 -238 540 -270 22 -12 75 -42 117 -66
43 -24 80 -44 84 -44 4 0 22 -11 40 -25 18 -14 35 -25 38 -25 29 0 836 -525
876 -570 3 -3 30 -23 60 -45 30 -22 57 -42 60 -45 3 -3 19 -15 35 -27 24 -17
216 -167 275 -216 8 -7 40 -32 70 -57 30 -25 57 -47 60 -50 3 -3 39 -34 80
-70 395 -340 795 -745 1136 -1150 278 -330 550 -700 768 -1045 49 -77 99 -156
112 -175 46 -71 287 -495 327 -575 6 -11 14 -27 18 -35 78 -150 215 -437 294
-615 205 -460 431 -1130 545 -1610 12 -49 32 -135 45 -190 14 -55 27 -118 31
-140 3 -22 7 -42 9 -45 2 -3 13 -57 24 -120 12 -63 23 -126 26 -140 4 -22 14
-79 31 -185 2 -16 6 -41 9 -55 2 -14 7 -43 10 -65 2 -22 10 -74 16 -115 12
-80 13 -91 23 -190 4 -36 9 -76 11 -90 2 -14 6 -59 10 -100 4 -41 8 -90 11
-109 3 -33 12 -154 19 -276 21 -362 21 -913 0 -1295 -12 -223 -24 -402 -30
-472 -3 -32 -7 -86 -10 -120 -3 -35 -7 -83 -10 -108 -2 -25 -7 -72 -10 -105
-6 -62 -12 -120 -20 -190 -2 -22 -7 -67 -10 -100 -3 -33 -8 -71 -10 -85 -2
-14 -7 -43 -9 -65 -3 -22 -8 -62 -11 -90 -3 -27 -8 -61 -10 -75 -2 -14 -6 -47
-9 -74 -13 -114 -55 -338 -81 -436 -2 -8 -13 -49 -24 -90 -126 -488 -342
-1103 -530 -1515 -16 -33 -43 -94 -62 -135 -41 -91 -226 -462 -272 -545 -72
-129 -91 -163 -130 -230 -282 -489 -747 -1138 -1061 -1480 -21 -22 -48 -53
-62 -70 -96 -115 -460 -486 -644 -655 -56 -52 -108 -100 -114 -105 -56 -53
-337 -289 -450 -379 -256 -203 -405 -312 -661 -484 -71 -48 -131 -90 -133 -94
-2 -5 -7 -8 -12 -8 -5 0 -41 -22 -82 -48 -40 -27 -106 -68 -146 -93 -40 -24
-85 -52 -100 -61 -15 -10 -41 -25 -59 -35 -18 -10 -72 -41 -120 -70 -323 -189
-940 -504 -1105 -563 -21 -8 -38 -18 -38 -22 0 -4 -7 -8 -15 -8 -8 0 -23 -4
-33 -10 -23 -13 -81 -37 -257 -110 -160 -65 -171 -70 -225 -93 -70 -30 -348
-126 -470 -162 -69 -20 -143 -43 -165 -50 -39 -13 -330 -91 -370 -98 -11 -2
-27 -6 -35 -9 -17 -7 -240 -56 -285 -64 -16 -3 -50 -10 -75 -15 -63 -15 -81
-18 -115 -24 -16 -3 -77 -14 -135 -25 -58 -10 -121 -21 -140 -24 -19 -3 -44
-8 -56 -10 -12 -2 -45 -7 -75 -11 -30 -4 -56 -8 -59 -10 -3 -2 -39 -6 -80 -10
-41 -4 -78 -9 -81 -11 -3 -1 -35 -6 -71 -9 -35 -4 -78 -8 -94 -10 -16 -2 -60
-7 -99 -10 -38 -4 -83 -8 -100 -10 -16 -2 -73 -7 -125 -10 -52 -4 -108 -8
-125 -10 -216 -25 -1028 -25 -1340 0 -27 2 -84 7 -125 10 -156 12 -243 20
-320 30 -333 42 -420 55 -685 100 -85 15 -338 68 -475 100 -209 49 -213 50
-305 75 -44 12 -84 23 -90 24 -226 57 -699 215 -1015 339 -418 164 -889 388
-1239 589 -46 26 -86 48 -88 48 -2 0 -29 16 -59 35 -30 19 -56 35 -58 35 -14
0 -379 233 -574 366 -136 93 -419 299 -432 314 -3 3 -21 17 -40 30 -19 13 -37
27 -40 30 -3 3 -39 32 -80 65 -317 254 -526 442 -829 745 -178 178 -287 294
-466 496 -242 273 -532 652 -778 1017 -77 114 -273 426 -325 517 -11 19 -36
64 -57 100 -227 397 -458 881 -620 1300 -28 74 -56 144 -60 155 -5 11 -9 22
-10 25 -1 3 -4 12 -8 20 -23 56 -153 442 -162 480 -2 8 -8 27 -14 43 -6 15
-13 38 -16 50 -2 12 -18 69 -35 127 -37 127 -109 398 -121 459 -5 23 -13 59
-18 80 -6 20 -12 47 -15 61 -2 14 -17 81 -31 150 -14 69 -28 136 -31 150 -6
35 -17 92 -21 110 -1 8 -6 33 -9 55 -3 22 -8 49 -9 60 -13 77 -36 228 -40 265
-3 25 -8 54 -10 65 -2 11 -7 49 -10 85 -4 36 -9 76 -11 90 -6 38 -28 257 -40
400 -30 384 -34 959 -9 1365 9 146 16 245 20 275 4 33 7 69 21 208 3 31 7 68
9 82 3 14 7 50 10 80 3 30 8 66 10 80 2 14 7 45 10 69 3 23 7 55 9 70 3 14 8
46 11 71 4 25 9 52 10 61 2 9 6 34 9 55 4 22 13 75 21 119 8 44 16 92 19 108
3 15 7 35 10 45 3 9 7 35 11 56 3 22 16 87 30 145 13 58 26 117 28 131 7 40
103 404 137 520 17 58 32 112 34 120 34 126 207 628 261 755 7 17 30 73 50
125 21 52 46 113 56 135 9 22 33 76 52 120 19 44 45 103 57 130 43 95 283 580
305 615 12 19 50 87 85 150 35 63 100 176 145 250 45 74 88 146 96 159 8 14
17 30 22 35 4 6 67 101 140 211 166 249 341 491 490 675 6 9 30 38 52 65 21
28 42 52 45 55 3 3 23 28 45 55 22 28 52 64 66 80 14 17 63 73 109 125 593
682 1398 1373 2155 1849 113 71 376 231 379 231 2 0 46 24 97 53 52 29 126 71
164 92 98 54 503 255 605 300 47 21 114 51 150 67 157 73 668 273 750 293 3 1
12 4 20 8 62 24 549 173 630 192 8 2 78 19 155 39 120 30 173 43 255 61 144
32 281 60 344 71 17 2 38 7 46 9 8 2 31 6 50 9 19 2 89 13 155 25 66 11 138
22 160 25 348 46 332 44 415 51 36 3 81 8 100 10 19 2 73 7 120 10 47 3 96 8
110 10 14 2 45 6 70 10 25 4 88 17 140 30 70 17 126 24 215 25 65 0 120 2 121
3 3 3 167 0 424 -7z"/>
</g>
</svg>
